<svg xmlns="http://www.w3.org/2000/svg" xmlns:xlink="http://www.w3.org/1999/xlink" viewBox="0,0,256,256" width="24px" height="24px" fill-rule="nonzero"><g transform=""><g fill="none" fill-rule="nonzero" stroke="none" stroke-width="1" stroke-linecap="butt" stroke-linejoin="miter" stroke-miterlimit="10" stroke-dasharray="" stroke-dashoffset="0" font-family="none" font-weight="none" font-size="none" text-anchor="none" style="mix-blend-mode: normal"><g transform="scale(3.76471,3.76471)"><path d="M2.16521,10.35331v36.81401c0,1.94499 1.586,3.53099 3.53198,3.53099h56.608c1.94501,0 3.53101,-1.586 3.53101,-3.53099v-36.81401z" fill="#ffffff"></path><path d="M62.30542,51.07324h-56.6084c-2.1543,0 -3.90674,-1.75195 -3.90674,-3.90576v-36.81396c0,-0.20703 0.16797,-0.375 0.375,-0.375h63.6709c0.20703,0 0.375,0.16797 0.375,0.375v36.81396c0,2.15381 -1.75195,3.90576 -3.90576,3.90576zM2.54028,10.72852v36.43896c0,1.74023 1.41602,3.15576 3.15674,3.15576h56.6084c1.74023,0 3.15576,-1.41553 3.15576,-3.15576v-36.43896z" fill="#000000"></path><path d="M65.83937,6.0399v9.93002h-5.57703v2.18201c0,0.97699 -0.79901,1.77698 -1.77698,1.77698h-15.22101c-2.67499,0 -4.97504,-1.629 -5.95203,-3.95898h-35.15198v-9.93002c0,-1.95499 1.59,-3.534 3.534,-3.534h56.61096c1.94501,0 3.53406,1.57901 3.53406,3.534" fill="#00555a"></path><path d="M58.4856,20.30371h-15.22119c-2.6748,0 -5.08008,-1.54541 -6.19678,-3.95898h-34.90723c-0.20703,0 -0.375,-0.16797 -0.375,-0.375v-9.92969c0,-2.15576 1.75342,-3.90918 3.90918,-3.90918h56.61084c2.15576,0 3.90918,1.75342 3.90918,3.90918v9.92969c0,0.20703 -0.16797,0.375 -0.375,0.375h-5.20215v1.80713c0,1.18652 -0.96533,2.15186 -2.15186,2.15186zM2.5354,15.59473h34.77686c0.15088,0 0.2876,0.09082 0.34569,0.22998c0.95021,2.26514 3.1504,3.729 5.60646,3.729h15.22119c0.77295,0 1.40186,-0.62891 1.40186,-1.40186v-2.18213c0,-0.20703 0.16797,-0.375 0.375,-0.375h5.20215v-9.55469c0,-1.74219 -1.41699,-3.15918 -3.15918,-3.15918h-56.61084c-1.74219,0 -3.15918,1.41699 -3.15918,3.15918z" fill="#000000"></path><path d="M13.2462,9.48219c0,1.76202 -1.41702,3.17902 -3.17902,3.17902c-1.745,0 -3.17801,-1.41699 -3.17801,-3.17902c0,-1.76199 1.43301,-3.17798 3.17801,-3.17798c1.76199,0 3.17902,1.41599 3.17902,3.17798" fill="#ffffff"></path><path d="M10.06714,13.03613c-1.95898,0 -3.55273,-1.59424 -3.55273,-3.55371c0,-1.95947 1.59375,-3.55322 3.55273,-3.55322c1.95996,0 3.5542,1.59375 3.5542,3.55322c0,1.95947 -1.59424,3.55371 -3.5542,3.55371zM10.06714,6.6792c-1.54541,0 -2.80273,1.25732 -2.80273,2.80322c0,1.5459 1.25732,2.80371 2.80273,2.80371c1.54639,0 2.8042,-1.25781 2.8042,-2.80371c0,-1.5459 -1.25781,-2.80322 -2.8042,-2.80322z" fill="#000000"></path><path d="M21.47719,9.48219c0,1.76202 -1.41702,3.17902 -3.17902,3.17902c-1.745,0 -3.17801,-1.41699 -3.17801,-3.17902c0,-1.76199 1.43301,-3.17798 3.17801,-3.17798c1.76199,0 3.17902,1.41599 3.17902,3.17798" fill="#ffffff"></path><path d="M18.2981,13.03613c-1.95898,0 -3.55273,-1.59424 -3.55273,-3.55371c0,-1.95947 1.59375,-3.55322 3.55273,-3.55322c1.95996,0 3.5542,1.59375 3.5542,3.55322c0,1.95947 -1.59424,3.55371 -3.5542,3.55371zM18.2981,6.6792c-1.54541,0 -2.80273,1.25732 -2.80273,2.80322c0,1.5459 1.25732,2.80371 2.80273,2.80371c1.54639,0 2.8042,-1.25781 2.8042,-2.80371c0,-1.5459 -1.25781,-2.80322 -2.8042,-2.80322z" fill="#000000"></path><path d="M29.7076,9.48219c0,1.76202 -1.41602,3.17902 -3.17804,3.17902c-1.74597,0 -3.17798,-1.41699 -3.17798,-3.17902c0,-1.76199 1.43201,-3.17798 3.17798,-3.17798c1.76202,0 3.17804,1.41599 3.17804,3.17798" fill="#ffffff"></path><path d="M26.52954,13.03613c-1.95898,0 -3.55273,-1.59424 -3.55273,-3.55371c0,-1.95947 1.59375,-3.55322 3.55273,-3.55322c1.95947,0 3.55322,1.59375 3.55322,3.55322c0,1.95947 -1.59375,3.55371 -3.55322,3.55371zM26.52954,6.6792c-1.54541,0 -2.80273,1.25732 -2.80273,2.80322c0,1.5459 1.25732,2.80371 2.80273,2.80371c1.5459,0 2.80322,-1.25781 2.80322,-2.80371c0,-1.5459 -1.25732,-2.80322 -2.80322,-2.80322z" fill="#000000"></path><path d="M38.30141,52.6893c-0.25201,0.832 -0.57404,1.62901 -0.96704,2.388c-0.24402,0.47301 -0.23199,1.035 0.07098,1.47301l0.71802,1.033c0.35101,0.50499 0.34698,1.192 -0.04401,1.66699c-0.79199,0.96001 -1.68701,1.836 -2.67096,2.605c-0.48102,0.37601 -1.16302,0.36401 -1.65802,0.00601l-0.87598,-0.632c-0.448,-0.32401 -1.03302,-0.33501 -1.52002,-0.07401c-0.72198,0.388 -1.48401,0.70801 -2.27502,0.96201c-0.51099,0.164 -0.89899,0.578 -0.98798,1.10699l-0.16901,1.00501c-0.10602,0.631 -0.62598,1.101 -1.263,1.168c-0.59698,0.063 -1.203,0.097 -1.81299,0.097c-0.604,0 -1.198,-0.02901 -1.78299,-0.09c-0.638,-0.06601 -1.159,-0.53601 -1.26602,-1.16901l-0.16998,-1.01101c-0.08899,-0.52899 -0.47699,-0.94299 -0.98801,-1.10699c-0.79099,-0.254 -1.55301,-0.57401 -2.27499,-0.96201c-0.487,-0.261 -1.07199,-0.25 -1.51999,0.07401l-0.87601,0.633c-0.495,0.35701 -1.177,0.369 -1.65802,-0.006c-0.987,-0.77 -1.88699,-1.646 -2.67599,-2.60699c-0.38998,-0.474 -0.39099,-1.15901 -0.04099,-1.66301l0.72198,-1.03999c0.302,-0.435 0.31802,-0.996 0.07401,-1.467c-0.39099,-0.76001 -0.716,-1.55901 -0.97101,-2.39201c-0.15799,-0.517 -0.57397,-0.91399 -1.10699,-1.00499l-1.314,-0.226c-0.63101,-0.10901 -1.09799,-0.62901 -1.164,-1.265c-0.061,-0.58601 -0.09,-1.18201 -0.09,-1.78801c0,-0.61099 0.035,-1.218 0.09698,-1.817c0.06702,-0.634 0.53403,-1.153 1.16302,-1.26199l1.30298,-0.224c0.53601,-0.09201 0.95102,-0.492 1.108,-1.01201c0.25302,-0.83099 0.582,-1.629 0.97501,-2.388c0.24402,-0.47 0.23001,-1.03 -0.07098,-1.46597l-0.72302,-1.04703c-0.34399,-0.5 -0.345,-1.17798 0.03702,-1.64999c0.78299,-0.97098 1.67798,-1.85098 2.66498,-2.62299c0.48102,-0.37701 1.164,-0.36502 1.65903,-0.00702l0.88199,0.63702c0.444,0.32199 1.026,0.33698 1.51001,0.07999c0.73099,-0.38998 1.5,-0.715 2.297,-0.97299c0.508,-0.164 0.89398,-0.57501 0.98499,-1.10001l0.17599,-1.02399c0.10901,-0.62903 0.63,-1.09601 1.26501,-1.16302c0.58499,-0.06097 1.17801,-0.09 1.77499,-0.09c0.60699,0 1.20898,0.02902 1.79999,0.091c0.63599,0.06601 1.15698,0.53299 1.26501,1.16299l0.177,1.02301c0.091,0.52499 0.47797,0.936 0.98499,1.10001c0.797,0.258 1.56598,0.58398 2.29797,0.97299c0.48401,0.25699 1.06402,0.242 1.50903,-0.078l0.87097,-0.62799c0.49402,-0.35699 1.17505,-0.36902 1.65601,0.00598c0.987,0.77002 1.883,1.64401 2.672,2.61102c0.38501,0.47299 0.38702,1.15399 0.04004,1.65601l-0.71704,1.03998c-0.302,0.43701 -0.31299,1 -0.06696,1.47099c0.39398,0.75801 0.71899,1.554 0.96899,2.384c0.15698,0.52101 0.573,0.922 1.10901,1.015l1.30194,0.22301c0.62805,0.10899 1.09601,0.62799 1.16302,1.26199c0.06299,0.599 0.09698,1.20601 0.09698,1.817c0,0.606 -0.02899,1.202 -0.08997,1.78801c-0.06604,0.63599 -0.534,1.15599 -1.164,1.265l-1.31299,0.22499c-0.534,0.09201 -0.95001,0.489 -1.10699,1.008" fill="#ff6b9a"></path><path d="M24.84644,65.86914c-0.625,0 -1.23779,-0.03076 -1.82227,-0.0918c-0.80664,-0.0835 -1.46338,-0.69189 -1.59619,-1.47949l-0.17041,-1.01123c-0.06348,-0.37646 -0.34424,-0.6875 -0.73291,-0.8125c-0.82227,-0.26367 -1.60889,-0.59668 -2.33789,-0.98877c-0.37402,-0.2002 -0.8042,-0.18213 -1.12256,0.04785l-0.87598,0.6333c-0.63867,0.46143 -1.50586,0.4541 -2.1084,-0.01416c-1.01025,-0.78857 -1.93066,-1.68506 -2.73535,-2.66504c-0.48779,-0.59277 -0.51221,-1.4624 -0.05908,-2.11475l0.72168,-1.04004c0.21533,-0.31006 0.23438,-0.72412 0.04932,-1.08105c-0.40088,-0.77881 -0.73633,-1.60449 -0.99658,-2.4541c-0.12061,-0.39502 -0.43164,-0.68066 -0.81201,-0.74561l-1.31396,-0.22559c-0.78467,-0.13623 -1.39014,-0.79248 -1.47363,-1.59619c-0.06104,-0.58496 -0.0918,-1.19971 -0.0918,-1.82666c0,-0.59619 0.0332,-1.22021 0.09912,-1.85547c0.08496,-0.80273 0.68994,-1.45801 1.47168,-1.59326l1.30371,-0.22412c0.38135,-0.06543 0.69238,-0.35254 0.8125,-0.75049c0.25391,-0.83496 0.59082,-1.65967 1.00098,-2.45215c0.18555,-0.35645 0.16748,-0.77051 -0.04639,-1.08057l-0.72314,-1.04687c-0.44531,-0.64697 -0.42285,-1.50977 0.0542,-2.09912c0.79736,-0.98926 1.71484,-1.8916 2.72559,-2.68213c0.60156,-0.47168 1.46875,-0.47949 2.10938,-0.01562l0.88232,0.63672c0.31592,0.23047 0.74365,0.25 1.11426,0.05322c0.74512,-0.39795 1.53809,-0.73389 2.35742,-0.99902c0.38623,-0.12451 0.66602,-0.43408 0.73096,-0.80762l0.17578,-1.02295c0.13574,-0.78271 0.7915,-1.3877 1.5957,-1.47266c1.18213,-0.12354 2.49219,-0.12061 3.65283,0.00098c0.80518,0.0835 1.46143,0.68896 1.5957,1.47266l0.17725,1.02246c0.06445,0.37305 0.34424,0.68213 0.73047,0.80713c0.81348,0.26318 1.60693,0.59912 2.35889,0.99902c0.36865,0.19629 0.7959,0.17627 1.11426,-0.05176l0.87012,-0.62744c0.6377,-0.46094 1.50391,-0.45459 2.10596,0.01416c1.01074,0.78906 1.92969,1.68701 2.73193,2.66943c0.48242,0.59277 0.50635,1.45898 0.05811,2.10693l-0.7168,1.03955c-0.21436,0.31006 -0.23096,0.7251 -0.04346,1.08447c0.40723,0.78369 0.74219,1.60791 0.99561,2.44971c0.12012,0.39844 0.43213,0.68701 0.81396,0.75293l1.30176,0.22314c0.78223,0.13574 1.3877,0.79053 1.47217,1.59229c0.06592,0.62598 0.09912,1.25049 0.09912,1.85645c0,0.62695 -0.03076,1.2417 -0.0918,1.82715c-0.0835,0.80322 -0.68896,1.45947 -1.47314,1.5957l-1.31348,0.22461c-0.38086,0.06592 -0.69238,0.35205 -0.81152,0.74707c0,0 0,0 0,0.00049c-0.2583,0.85303 -0.59229,1.67773 -0.99316,2.45117c-0.18555,0.36035 -0.16797,0.77734 0.04639,1.0874l0.71777,1.03271c0.45361,0.65186 0.42773,1.52344 -0.0625,2.11914c-0.81494,0.98779 -1.7334,1.8833 -2.72949,2.66211c-0.60107,0.4707 -1.46875,0.47803 -2.10889,0.01416l-0.87549,-0.63135c-0.31934,-0.23145 -0.74951,-0.24902 -1.12402,-0.04785c-0.72803,0.3916 -1.51465,0.72461 -2.33691,0.98828c-0.38867,0.125 -0.66943,0.43604 -0.73291,0.81201l-0.16895,1.00537c-0.13232,0.78564 -0.7876,1.39355 -1.59326,1.479c-0.62158,0.06543 -1.24463,0.09863 -1.85254,0.09863zM17.64819,60.59619c0.30127,0 0.60791,0.07568 0.89307,0.22852c0.68945,0.37061 1.43359,0.68555 2.21289,0.93555c0.65674,0.21045 1.13281,0.74805 1.24268,1.40186l0.17041,1.01074c0.07715,0.45654 0.46143,0.80957 0.93457,0.8584c1.10156,0.11475 2.31055,0.12109 3.51807,-0.00684c0.47998,-0.05078 0.85498,-0.39502 0.93311,-0.85742l0.16895,-1.00488c0.10986,-0.65381 0.58594,-1.19092 1.24268,-1.40186c0.7793,-0.25 1.52344,-0.56494 2.21191,-0.93506c0.63086,-0.3374 1.36572,-0.2998 1.91748,0.10059l0.87549,0.63135c0.37109,0.26855 0.86719,0.26953 1.20801,0.00293c0.95361,-0.74512 1.83252,-1.60254 2.61279,-2.54834c0.27734,-0.33691 0.2876,-0.83643 0.0249,-1.21436l-0.71777,-1.0332c-0.37256,-0.53857 -0.40967,-1.25049 -0.09668,-1.85889c0.37988,-0.7334 0.69678,-1.51514 0.94189,-2.32422v0c0.20166,-0.66846 0.73877,-1.15479 1.40186,-1.26953l1.31347,-0.22461c0.46144,-0.08008 0.8047,-0.45557 0.8545,-0.93408c0.05811,-0.55957 0.08789,-1.14844 0.08789,-1.74951c0,-0.57959 -0.03223,-1.17773 -0.09521,-1.77783c-0.04932,-0.46973 -0.40039,-0.85303 -0.85352,-0.93164l-1.30176,-0.22314c-0.66406,-0.11475 -1.20215,-0.604 -1.4043,-1.27637c-0.24023,-0.79687 -0.55762,-1.57715 -0.94287,-2.31934c-0.31641,-0.60596 -0.28125,-1.31787 0.09131,-1.85693l0.7168,-1.03955c0.25977,-0.37549 0.25049,-0.87158 -0.02246,-1.20654c-0.76611,-0.93896 -1.64502,-1.79785 -2.61133,-2.55225c-0.34082,-0.26465 -0.83691,-0.26465 -1.20605,0.00293l-0.87109,0.62793c-0.55127,0.39648 -1.27979,0.43604 -1.9043,0.10498c-0.71338,-0.37891 -1.46582,-0.69775 -2.2373,-0.94727c-0.65234,-0.21094 -1.12695,-0.74463 -1.23926,-1.39307l-0.17725,-1.02295c-0.0791,-0.46143 -0.4541,-0.8042 -0.93408,-0.854c-1.11133,-0.11719 -2.36816,-0.11914 -3.49707,-0.00098c-0.47168,0.0498 -0.85645,0.40088 -0.93457,0.854l-0.17578,1.02344c-0.11279,0.64941 -0.58789,1.18311 -1.23975,1.39355c-0.77686,0.25098 -1.52881,0.56982 -2.23535,0.94727c-0.62793,0.33154 -1.35791,0.28955 -1.90674,-0.10742l-0.88184,-0.63672c-0.37012,-0.26758 -0.8667,-0.26953 -1.20752,-0.00195c-0.96631,0.75586 -1.84229,1.61768 -2.60449,2.56299c-0.27002,0.3335 -0.27832,0.82764 -0.02002,1.20215l0.72266,1.04688c0.37207,0.53906 0.4082,1.24854 0.09473,1.85156c-0.38867,0.75146 -0.70801,1.53369 -0.94873,2.32471c-0.20215,0.67041 -0.74025,1.1582 -1.40332,1.27197l-1.30322,0.22412c-0.45947,0.07959 -0.80273,0.4541 -0.85303,0.93213c-0.06299,0.60889 -0.09521,1.20703 -0.09521,1.77734c0,0.60107 0.02979,1.18994 0.08789,1.74902c0.0498,0.479 0.39307,0.85449 0.85498,0.93457l1.31348,0.22559c0.66113,0.11328 1.19873,0.59814 1.40234,1.26563c0.24707,0.80664 0.56543,1.59033 0.9458,2.3291c0.3125,0.604 0.2749,1.31396 -0.09961,1.85303l-0.72168,1.04004c-0.2627,0.37793 -0.25342,0.87598 0.02246,1.21094c0.77002,0.9375 1.65039,1.79541 2.6167,2.5498c0.34082,0.26563 0.8374,0.26465 1.2085,-0.00293l0.87549,-0.63281c0.30225,-0.21826 0.65869,-0.3291 1.02344,-0.3291zM38.30151,52.68945h0.00928z" fill="#000000"></path><path d="M32.18947,48.39c0,1.62901 -0.53204,3.13 -1.432,4.343c-0.04205,0.05901 -0.09003,0.117 -0.133,0.17601c-0.90503,1.149 -2.14404,2.017 -3.56604,2.46399c-0.14301,0.048 -0.28699,0.08501 -0.43097,0.12201c-0.34003,0.086 -0.69202,0.149 -1.04803,0.18199c-0.02197,0.005 -0.04297,0.005 -0.05896,0.005c-0.05304,0.005 -0.10101,0.00999 -0.15405,0.00999c-0.17096,0.01601 -0.34094,0.022 -0.51599,0.022c-0.17096,0 -0.341,-0.006 -0.50598,-0.022c-0.05298,0 -0.10101,-0.00499 -0.15399,-0.00999h-0.05399c-0.07401,-0.011 -0.15399,-0.01601 -0.23401,-0.032c-0.05301,-0.006 -0.10599,-0.01001 -0.16,-0.021c-0.09,-0.011 -0.186,-0.02701 -0.276,-0.048c-0.12299,-0.022 -0.245,-0.048 -0.367,-0.08c-0.14398,-0.032 -0.28799,-0.075 -0.427,-0.117h-0.004c-1.25699,-0.394 -2.36398,-1.11299 -3.23099,-2.06l-0.224,-0.261c-0.09,-0.106 -0.17499,-0.213 -0.26102,-0.33c-0.89398,-1.213 -1.42599,-2.71399 -1.42599,-4.343c0,-4.06099 3.27802,-7.33899 7.32397,-7.33899c4.04504,0 7.33905,3.278 7.33905,7.33899" fill="#ffffff"></path><path d="M24.85034,56.08887c-0.18311,0 -0.36523,-0.00635 -0.54248,-0.02393c-0.02344,0.00293 -0.08008,-0.00195 -0.13965,-0.0083c-0.00293,-0.00049 -0.15967,-0.0127 -0.16211,-0.01318c-0.05811,-0.00684 -0.11768,-0.01367 -0.17725,-0.02588c-0.05273,-0.00391 -0.10693,-0.00977 -0.1626,-0.02148c-0.07129,-0.00732 -0.18213,-0.02588 -0.28516,-0.0498c-0.11328,-0.02002 -0.24561,-0.04785 -0.37744,-0.08252c-0.13135,-0.02881 -0.27588,-0.07129 -0.4165,-0.11377c-0.01074,-0.00244 -0.021,-0.00537 -0.03076,-0.0083c-1.29639,-0.40576 -2.4707,-1.1543 -3.39551,-2.16406l-0.23193,-0.271c-0.09668,-0.11328 -0.1875,-0.22705 -0.27881,-0.35205c-0.97998,-1.32959 -1.49854,-2.9082 -1.49854,-4.56445c0,-4.25391 3.45361,-7.71436 7.69873,-7.71436c4.25391,0 7.71436,3.46045 7.71436,7.71436c0,1.65918 -0.521,3.23828 -1.50586,4.56641l-0.07617,0.10059c-0.00293,0.00391 -0.06104,0.08008 -0.06396,0.08398c-0.96582,1.22656 -2.26172,2.12207 -3.74805,2.58984c-0.14307,0.04785 -0.29395,0.08691 -0.44434,0.12598c-0.37793,0.0957 -0.75,0.16016 -1.11279,0.19336c-0.13037,0.01172 -0.18604,0.0166 -0.24707,0.0166c-0.14746,0.01562 -0.3291,0.02197 -0.51611,0.02197zM22.75659,55.01855c0.0083,0.00195 0.0166,0.00391 0.0249,0.00635c0.12939,0.03906 0.26416,0.08008 0.39844,0.10986c0.12744,0.0332 0.23926,0.05713 0.35254,0.07715c0.09619,0.02197 0.17773,0.03564 0.25439,0.04443l0.12061,0.01709c0.10791,0.0166 0.14648,0.02051 0.18457,0.0249c0.00439,0.00049 0.09619,0.01221 0.10059,0.01318c0.08154,0.00195 0.11475,0.00537 0.15186,0.00537c0.38428,0.03418 0.67383,0.03125 0.98682,0.00146c0.07227,-0.00146 0.10547,-0.00488 0.14209,-0.0083c0.39551,-0.03662 0.729,-0.09424 1.0625,-0.17871c0.13623,-0.03516 0.27051,-0.06934 0.40332,-0.11377c1.34814,-0.42432 2.51807,-1.23291 3.39063,-2.34033l0.12207,-0.16162c0.89307,-1.20361 1.36279,-2.62842 1.36279,-4.12549c0,-3.84033 -3.12402,-6.96436 -6.96436,-6.96436c-3.83154,0 -6.94873,3.12402 -6.94873,6.96436c0,1.49512 0.46777,2.91992 1.35254,4.12012c0.08105,0.11035 0.16064,0.21045 0.24463,0.30957l0.22314,0.26074c0.82227,0.89697 1.87354,1.56982 3.03467,1.93799z" fill="#000000"></path><path d="M63.64558,58.057c-0.14606,0.483 -0.33301,0.94601 -0.56201,1.38701c-0.14203,0.27499 -0.13501,0.601 0.04199,0.856l0.41602,0.59999c0.20496,0.293 0.20197,0.692 -0.02502,0.968c-0.46002,0.558 -0.97998,1.06601 -1.55103,1.513c-0.27899,0.218 -0.67596,0.211 -0.96399,0.00301l-0.508,-0.367c-0.26099,-0.188 -0.59998,-0.19499 -0.883,-0.043c-0.41998,0.226 -0.862,0.411 -1.32098,0.55901c-0.297,0.095 -0.52203,0.336 -0.57404,0.64299l-0.09796,0.58301c-0.06201,0.36699 -0.36401,0.64 -0.73401,0.679c-0.34698,0.036 -0.698,0.056 -1.05298,0.056c-0.35101,0 -0.69604,-0.017 -1.03601,-0.052c-0.37,-0.03801 -0.67303,-0.312 -0.73401,-0.679l-0.10004,-0.58701c-0.05096,-0.307 -0.27698,-0.54799 -0.573,-0.64299c-0.45996,-0.14801 -0.90198,-0.33301 -1.32196,-0.55901c-0.28204,-0.15199 -0.62201,-0.145 -0.88202,0.043l-0.50897,0.368c-0.28802,0.207 -0.68402,0.214 -0.96405,-0.004c-0.57196,-0.44699 -1.09497,-0.955 -1.55396,-1.51399c-0.22601,-0.27501 -0.22699,-0.673 -0.02399,-0.966l0.41998,-0.604c0.17596,-0.25299 0.18396,-0.578 0.04297,-0.852c-0.22699,-0.44099 -0.41595,-0.90599 -0.56396,-1.38899c-0.09204,-0.30099 -0.33301,-0.53101 -0.64301,-0.584l-0.76404,-0.131c-0.36499,-0.063 -0.63696,-0.366 -0.67499,-0.735c-0.03601,-0.341 -0.05298,-0.687 -0.05298,-1.03801c0,-0.355 0.02002,-0.70799 0.05701,-1.05499c0.039,-0.369 0.31,-0.67101 0.67499,-0.733l0.75702,-0.131c0.31097,-0.05301 0.552,-0.285 0.64398,-0.588c0.14697,-0.483 0.33801,-0.946 0.56598,-1.386c0.14203,-0.274 0.133,-0.59801 -0.04095,-0.852l-0.42004,-0.608c-0.20001,-0.291 -0.20001,-0.68399 0.021,-0.959c0.45502,-0.563 0.97504,-1.07401 1.54803,-1.523c0.27899,-0.21901 0.67596,-0.21201 0.96301,-0.004l0.513,0.37c0.258,0.187 0.59595,0.196 0.87695,0.04601c0.42505,-0.226 0.87103,-0.41501 1.33405,-0.565c0.29498,-0.095 0.51996,-0.334 0.57196,-0.63901l0.10303,-0.59399c0.06299,-0.366 0.36499,-0.63701 0.73401,-0.67599c0.33997,-0.035 0.68396,-0.052 1.03101,-0.052c0.35297,0 0.70197,0.017 1.04596,0.05299c0.36902,0.03799 0.67102,0.30901 0.73499,0.675l0.10205,0.59399c0.05298,0.30501 0.27795,0.54401 0.57196,0.63901c0.46399,0.14999 0.91003,0.339 1.33502,0.565c0.28101,0.14999 0.61798,0.14099 0.87598,-0.045l0.50604,-0.36501c0.28796,-0.207 0.68298,-0.214 0.96198,0.004c0.57397,0.44701 1.09399,0.955 1.552,1.517c0.224,0.274 0.22498,0.67 0.02399,0.961l-0.41699,0.604c-0.17499,0.255 -0.18201,0.58099 -0.03998,0.855c0.22998,0.44 0.41797,0.90201 0.56396,1.384c0.091,0.30301 0.33203,0.536 0.64404,0.59l0.75598,0.13c0.36499,0.062 0.63696,0.364 0.67499,0.733c0.03699,0.347 0.05701,0.7 0.05701,1.05499c0,0.35101 -0.01703,0.69701 -0.052,1.03801c-0.039,0.369 -0.31097,0.672 -0.67603,0.735l-0.763,0.131c-0.31,0.05299 -0.552,0.284 -0.64294,0.58499" fill="#0077b6"></path><path d="M55.83081,65.86914c-0.36426,0 -0.72217,-0.01758 -1.07471,-0.0542c-0.54004,-0.05566 -0.97803,-0.46289 -1.06543,-0.99072l-0.09961,-0.58545c-0.02686,-0.16113 -0.14893,-0.29443 -0.31787,-0.34863c-0.4917,-0.15869 -0.95752,-0.35547 -1.38525,-0.58594c-0.16406,-0.08789 -0.34863,-0.08203 -0.48486,0.01709l-0.50879,0.36719c-0.42822,0.30908 -1.00977,0.30371 -1.41406,-0.01172c-0.59668,-0.46582 -1.13916,-0.99463 -1.61328,-1.57129c-0.32764,-0.39893 -0.34473,-0.98193 -0.04248,-1.41846l0.41992,-0.604c0.09277,-0.1333 0.09961,-0.30762 0.01758,-0.4668c-0.23682,-0.45996 -0.43506,-0.94824 -0.58887,-1.4502c-0.05273,-0.17285 -0.18604,-0.29687 -0.34766,-0.32422l-0.76416,-0.13135c-0.52441,-0.09033 -0.9292,-0.52881 -0.98486,-1.06592c-0.0376,-0.35303 -0.05469,-0.7124 -0.05469,-1.07666c0,-0.36816 0.02051,-0.73437 0.05859,-1.09424c0.05713,-0.53711 0.4624,-0.97461 0.98535,-1.06348l0.75586,-0.13086c0.16309,-0.02734 0.29639,-0.15283 0.34912,-0.32715c0.15039,-0.49414 0.34961,-0.98193 0.5918,-1.44971c0.08203,-0.15771 0.0752,-0.33203 -0.01709,-0.4668l-0.41943,-0.60791c-0.29687,-0.43164 -0.28174,-1.00977 0.03711,-1.40674c0.47119,-0.58301 1.01221,-1.11523 1.60889,-1.58301c0.40576,-0.31738 0.9873,-0.32178 1.41504,-0.0127l0.51221,0.36963c0.13525,0.09814 0.31885,0.10596 0.48047,0.01953c0.44482,-0.23633 0.91406,-0.43506 1.39502,-0.59131c0.16943,-0.0542 0.29102,-0.18701 0.31836,-0.3457l0.10303,-0.59424c0.09033,-0.52295 0.52783,-0.92822 1.06396,-0.98535c0.71387,-0.07275 1.44727,-0.07275 2.15527,0.00098c0.53613,0.05518 0.97412,0.45996 1.06592,0.98389l0.10205,0.59473c0.02734,0.15869 0.14893,0.2915 0.31787,0.3457c0.48145,0.15576 0.95117,0.35449 1.39551,0.59082c0.16064,0.08545 0.34424,0.08008 0.48047,-0.01807l0.50635,-0.36523c0.42822,-0.30811 1.0083,-0.30225 1.41211,0.0127c0.5957,0.46436 1.13818,0.99463 1.61133,1.57568c0.32422,0.396 0.3418,0.97656 0.04248,1.41064l-0.41699,0.604c-0.09229,0.13428 -0.09814,0.31006 -0.01562,0.46924c0.23877,0.45752 0.4375,0.94531 0.58984,1.44824c0.05273,0.17529 0.18604,0.30127 0.34863,0.3291l0.75586,0.12988c0.52393,0.08887 0.92871,0.52686 0.98438,1.06445c0.03857,0.3584 0.05908,0.72461 0.05908,1.09326c0,0.36377 -0.01758,0.72266 -0.05371,1.07617c-0.05713,0.53809 -0.4624,0.97607 -0.98535,1.06641l-0.76367,0.13135c-0.1626,0.02783 -0.29541,0.15137 -0.34717,0.32373v0c-0.15283,0.50586 -0.35059,0.99414 -0.58789,1.45117c-0.08252,0.15918 -0.07617,0.33496 0.01709,0.46924l0.41602,0.6001c0.30371,0.43457 0.28564,1.01904 -0.04395,1.42041c-0.479,0.58105 -1.02051,1.10889 -1.60937,1.56982c-0.40479,0.31641 -0.98584,0.31934 -1.41455,0.01172l-0.50781,-0.3667c-0.13721,-0.09863 -0.32227,-0.10498 -0.48584,-0.01709c-0.42725,0.22998 -0.89258,0.42725 -1.3833,0.58594c-0.17041,0.0542 -0.29248,0.1875 -0.31982,0.34814l-0.09814,0.58252c-0.08887,0.52637 -0.52637,0.93359 -1.06396,0.99023c-0.36084,0.0376 -0.72412,0.05811 -1.09229,0.05811zM51.65063,62.4917c0.20068,0 0.4043,0.05029 0.59326,0.15234c0.38721,0.2085 0.81104,0.3877 1.25879,0.53223c0.43701,0.14014 0.75439,0.49951 0.82764,0.9375l0.1001,0.58643c0.03271,0.19678 0.19775,0.34766 0.40283,0.36865c0.6582,0.06836 1.34717,0.06543 2.01123,-0.00391c0.20752,-0.02197 0.36963,-0.16992 0.40332,-0.36865l0.09814,-0.58252c0.07373,-0.43896 0.39209,-0.79834 0.83008,-0.93799c0.44629,-0.14404 0.86963,-0.32324 1.25684,-0.53174c0.41797,-0.22461 0.90869,-0.19775 1.27979,0.06885l0.5083,0.3667c0.16016,0.11572 0.37012,0.11865 0.51367,0.00586c0.5459,-0.42725 1.04785,-0.91699 1.49268,-1.45605c0.11621,-0.1416 0.11963,-0.35352 0.00684,-0.51465l-0.4165,-0.60107c-0.25049,-0.36035 -0.27637,-0.83643 -0.06738,-1.2417c0.2168,-0.41699 0.39697,-0.86182 0.53662,-1.32324c0.13477,-0.44629 0.49414,-0.77051 0.93848,-0.84619l0.7627,-0.13135c0.19434,-0.03369 0.34521,-0.19971 0.3667,-0.40479c0.0332,-0.32666 0.0498,-0.66016 0.0498,-0.99854c0,-0.34131 -0.01953,-0.68115 -0.05518,-1.01465c-0.021,-0.20557 -0.1709,-0.37061 -0.36475,-0.40381l-0.75635,-0.12988c-0.44533,-0.07666 -0.80518,-0.40283 -0.93994,-0.85156c-0.13818,-0.45752 -0.31934,-0.90137 -0.53711,-1.31885c-0.20947,-0.40381 -0.18506,-0.87891 0.06348,-1.24072l0.41748,-0.60449c0.11084,-0.16064 0.1084,-0.37061 -0.00586,-0.51074c-0.43848,-0.53809 -0.94043,-1.02832 -1.49219,-1.4585c-0.14307,-0.11133 -0.35303,-0.10889 -0.5127,0.00488l-0.50586,0.36475c-0.36768,0.26611 -0.85645,0.29297 -1.27148,0.07178c-0.40527,-0.21582 -0.8335,-0.39697 -1.27393,-0.53906c-0.43457,-0.14062 -0.75098,-0.49805 -0.82617,-0.93213l-0.10205,-0.59424c-0.03418,-0.19678 -0.19678,-0.34424 -0.40381,-0.36572c-0.65771,-0.06738 -1.34082,-0.06738 -2.00049,-0.00098c-0.20605,0.02197 -0.36865,0.16943 -0.40234,0.3667l-0.10303,0.59424c-0.07471,0.43408 -0.39111,0.7915 -0.82666,0.93213c-0.43945,0.14209 -0.86768,0.32373 -1.27344,0.53906c-0.41504,0.22168 -0.90283,0.19434 -1.27246,-0.07324l-0.5127,-0.36963c-0.15869,-0.11523 -0.36963,-0.11768 -0.51221,-0.00488c-0.55225,0.43262 -1.05273,0.92529 -1.48779,1.46338c-0.1123,0.13965 -0.11377,0.3501 -0.00342,0.51074l0.41943,0.60791c0.24854,0.36182 0.27344,0.83594 0.06543,1.2373c-0.22119,0.42725 -0.40332,0.87256 -0.54004,1.32275c-0.13574,0.44775 -0.49609,0.77295 -0.94043,0.84814l-0.75537,0.13086c-0.19775,0.0332 -0.34424,0.19531 -0.36621,0.40332c-0.03516,0.3335 -0.05469,0.67334 -0.05469,1.01514c0,0.33789 0.01611,0.6709 0.05078,0.99854c0.021,0.20508 0.17139,0.37109 0.36621,0.40479l0.76318,0.13135c0.44287,0.0752 0.80273,0.39893 0.93848,0.84424c0.14063,0.45898 0.32178,0.90527 0.53857,1.32617c0.20801,0.40479 0.18164,0.87891 -0.06885,1.23828l-0.41943,0.60352c-0.1123,0.16211 -0.10986,0.37354 0.00586,0.51465c0.43896,0.53418 0.94189,1.02441 1.49512,1.45605c0.14258,0.11084 0.354,0.10986 0.51416,-0.00537l0.50781,-0.3667c0.20361,-0.14746 0.44336,-0.22168 0.68701,-0.22168zM63.64575,58.05713h0.00928z" fill="#000000"></path><path d="M60.09578,55.5599c0,0.94601 -0.30902,1.81801 -0.83203,2.522c-0.02399,0.035 -0.052,0.069 -0.07703,0.103c-0.526,0.66701 -1.24597,1.17101 -2.07098,1.43102c-0.08301,0.02699 -0.16699,0.049 -0.25,0.071c-0.198,0.049 -0.40198,0.086 -0.60901,0.105c-0.013,0.00299 -0.02496,0.00299 -0.03497,0.00299c-0.03003,0.00301 -0.05798,0.00601 -0.08899,0.00601c-0.099,0.00899 -0.198,0.013 -0.29999,0.013c-0.09906,0 -0.19806,-0.00401 -0.29401,-0.013c-0.03003,0 -0.05804,-0.00301 -0.08905,-0.00601h-0.03094c-0.04303,-0.006 -0.09003,-0.00899 -0.13605,-0.01799c-0.03101,-0.004 -0.06195,-0.007 -0.09296,-0.013c-0.052,-0.006 -0.10803,-0.015 -0.16101,-0.028c-0.07098,-0.01201 -0.14203,-0.028 -0.21301,-0.04601c-0.08301,-0.019 -0.16699,-0.043 -0.24701,-0.06799h-0.00299c-0.72998,-0.229 -1.37299,-0.64601 -1.87701,-1.196l-0.13,-0.15201c-0.052,-0.062 -0.10199,-0.123 -0.151,-0.192c-0.51996,-0.70399 -0.82898,-1.57599 -0.82898,-2.522c0,-2.35799 1.90497,-4.26299 4.25403,-4.26299c2.349,0 4.263,1.905 4.263,4.26299" fill="#ffffff"></path><path d="M55.83276,60.18896c-0.11133,0 -0.22266,-0.00439 -0.33008,-0.01514c-0.00488,-0.00049 -0.12988,-0.00684 -0.13477,-0.00732c-0.07617,-0.00879 -0.11768,-0.01367 -0.15918,-0.02197l-0.09375,-0.01318c-0.03467,-0.00244 -0.10742,-0.01416 -0.17676,-0.03174c-0.05176,-0.00732 -0.1333,-0.02539 -0.21484,-0.04639c-0.07715,-0.01758 -0.1626,-0.0415 -0.24512,-0.06641c-0.0083,-0.00195 -0.0166,-0.00439 -0.0249,-0.00684c-0.78027,-0.24512 -1.48584,-0.69482 -2.04102,-1.30078l-0.13867,-0.16162c-0.06055,-0.07178 -0.1167,-0.14111 -0.17139,-0.21875c-0.58643,-0.79346 -0.89844,-1.74268 -0.89844,-2.73877c0,-2.55762 2.07666,-4.63818 4.62891,-4.63818c2.55762,0 4.63818,2.08057 4.63818,4.63818c0,0.99805 -0.31348,1.94775 -0.90576,2.74561c-0.00244,0.00293 -0.08154,0.10889 -0.08398,0.11133c-0.58105,0.7373 -1.35986,1.27539 -2.25244,1.55664c-0.08203,0.02686 -0.16943,0.05029 -0.25586,0.07324c-0.2334,0.05762 -0.45605,0.09766 -0.68213,0.11865c-0.07861,0.00732 -0.11621,0.01025 -0.1582,0.01025c-0.0752,0.00879 -0.18604,0.01318 -0.2998,0.01318zM54.65794,59.25781c0.00734,0.00195 0.01466,0.00391 0.02199,0.00635c0.07129,0.02197 0.146,0.04346 0.21973,0.06006c0.06934,0.01758 0.12939,0.03174 0.18994,0.0415c0.06641,0.01514 0.10596,0.021 0.14209,0.02539c0.01074,0.00098 0.11475,0.01611 0.12549,0.01807c0.01172,0 0.1167,0.01123 0.12842,0.01221c0.35352,0.02783 0.44141,0.02148 0.61182,0.00586c0.01172,-0.00098 0.11279,-0.00732 0.12451,-0.00732c0.18848,-0.01855 0.37402,-0.05273 0.5542,-0.09717c0.07715,-0.02051 0.15039,-0.03955 0.22266,-0.06299c0.75293,-0.2373 1.40625,-0.68896 1.89355,-1.30713l0.37158,0.12939l-0.30127,-0.22363c0.49609,-0.66748 0.7583,-1.4624 0.7583,-2.29834c0,-2.14404 -1.74414,-3.88818 -3.88818,-3.88818c-2.13867,0 -3.87891,1.74414 -3.87891,3.88818c0,0.83447 0.26123,1.62988 0.75586,2.29932c0.04688,0.06592 0.09033,0.11865 0.13574,0.17285l0.12842,0.1499c0.45264,0.49414 1.0376,0.86914 1.68407,1.07568z" fill="#000000"></path><path d="M61.80347,24.10156h-55.60498c-0.20703,0 -0.375,-0.16797 -0.375,-0.375c0,-0.20703 0.16797,-0.375 0.375,-0.375h55.60498c0.20703,0 0.375,0.16797 0.375,0.375c0,0.20703 -0.16797,0.375 -0.375,0.375z" fill="#000000"></path><path d="M61.80347,27.87549h-55.60498c-0.20703,0 -0.375,-0.16797 -0.375,-0.375c0,-0.20703 0.16797,-0.375 0.375,-0.375h55.60498c0.20703,0 0.375,0.16797 0.375,0.375c0,0.20703 -0.16797,0.375 -0.375,0.375z" fill="#000000"></path><path d="M61.80347,31.6499h-21.05762c-0.20703,0 -0.375,-0.16797 -0.375,-0.375c0,-0.20703 0.16797,-0.375 0.375,-0.375h21.05762c0.20703,0 0.375,0.16797 0.375,0.375c0,0.20703 -0.16797,0.375 -0.375,0.375z" fill="#000000"></path><path d="M61.80347,35.42383h-21.05762c-0.20703,0 -0.375,-0.16797 -0.375,-0.375c0,-0.20703 0.16797,-0.375 0.375,-0.375h21.05762c0.20703,0 0.375,0.16797 0.375,0.375c0,0.20703 -0.16797,0.375 -0.375,0.375z" fill="#000000"></path><path d="M61.80347,39.19824h-21.05762c-0.20703,0 -0.375,-0.16797 -0.375,-0.375c0,-0.20703 0.16797,-0.375 0.375,-0.375h21.05762c0.20703,0 0.375,0.16797 0.375,0.375c0,0.20703 -0.16797,0.375 -0.375,0.375z" fill="#000000"></path></g></g></g></svg>