<?xml version="1.0" encoding="UTF-8"?>
<svg xmlns="http://www.w3.org/2000/svg" xmlns:xlink="http://www.w3.org/1999/xlink" width="256px" height="256px" viewBox="0 0 256 256" version="1.1">
<g id="surface1">
<path style=" stroke:none;fill-rule:nonzero;fill:rgb(88.235295%,88.235295%,88.235295%);fill-opacity:1;" d="M 128 40 L 137 56 L 119 56 Z M 190 64 L 180 80 L 164 70 L 174 54 Z M 216 128 L 200 119 L 200 137 Z M 190 192 L 174 202 L 164 186 L 180 176 Z M 128 216 L 119 200 L 137 200 Z M 66 192 L 76 176 L 92 186 L 82 202 Z M 40 128 L 56 137 L 56 119 Z M 66 64 L 82 54 L 92 70 L 76 80 Z M 66 64 "/>
<path style="fill-rule:nonzero;fill:rgb(94.901961%,94.901961%,94.901961%);fill-opacity:1;stroke-width:2;stroke-linecap:butt;stroke-linejoin:miter;stroke:rgb(81.960785%,81.960785%,81.960785%);stroke-opacity:1;stroke-miterlimit:4;" d="M 102 64 C 102 43.013672 84.986328 26 64 26 C 43.013672 26 26 43.013672 26 64 C 26 84.986328 43.013672 102 64 102 C 84.986328 102 102 84.986328 102 64 Z M 102 64 " transform="matrix(2,0,0,2,0,0)"/>
<path style=" stroke:none;fill-rule:nonzero;fill:rgb(97.647059%,50.196081%,7.058824%);fill-opacity:1;" d="M 84 60 L 172 60 C 176.417969 60 180 63.582031 180 68 L 180 188 C 180 192.417969 176.417969 196 172 196 L 84 196 C 79.582031 196 76 192.417969 76 188 L 76 68 C 76 63.582031 79.582031 60 84 60 Z M 84 60 "/>
<path style="fill:none;stroke-width:4;stroke-linecap:round;stroke-linejoin:miter;stroke:rgb(100%,100%,100%);stroke-opacity:1;stroke-miterlimit:4;" d="M 48 45 L 78 45 M 48 55 L 78 55 M 48 65 L 65 65 " transform="matrix(2,0,0,2,0,0)"/>
<path style="fill-rule:nonzero;fill:rgb(0%,48.235294%,100%);fill-opacity:1;stroke-width:3;stroke-linecap:butt;stroke-linejoin:miter;stroke:rgb(100%,100%,100%);stroke-opacity:1;stroke-miterlimit:4;" d="M 107 90 C 107 77.849609 97.150391 68 85 68 C 72.849609 68 63 77.849609 63 90 C 63 102.150391 72.849609 112 85 112 C 97.150391 112 107 102.150391 107 90 Z M 107 90 " transform="matrix(2,0,0,2,0,0)"/>
<path style="fill:none;stroke-width:6;stroke-linecap:round;stroke-linejoin:miter;stroke:rgb(100%,100%,100%);stroke-opacity:1;stroke-miterlimit:4;" d="M 85 80 L 85 100 M 75 90 L 95 90 " transform="matrix(2,0,0,2,0,0)"/>
</g>
</svg>
